<?xml version="1.0" encoding="utf-8"?>
<!-- Generator: Adobe Illustrator 26.0.1, SVG Export Plug-In . SVG Version: 6.00 Build 0)  -->
<svg version="1.1" id="Capa_1" xmlns="http://www.w3.org/2000/svg" xmlns:xlink="http://www.w3.org/1999/xlink" x="0px" y="0px"
	 viewBox="0 0 31.9 32" style="enable-background:new 0 0 31.9 32;" xml:space="preserve">
<style type="text/css">
	.st0{fill:url(#SVGID_1_);}
	.st1{fill:#FCFCFC;}
</style>
<linearGradient id="SVGID_1_" gradientUnits="userSpaceOnUse" x1="1.6304" y1="1.6304" x2="30.3696" y2="30.3696">
	<stop  offset="0" style="stop-color:#7928CA"/>
	<stop  offset="1" style="stop-color:#623BE2"/>
</linearGradient>
<path class="st0" d="M26.4,32H5.6C2.5,32,0,29.5,0,26.4V5.6C0,2.5,2.5,0,5.6,0h20.9C29.5,0,32,2.5,32,5.6v20.9
	C32,29.5,29.5,32,26.4,32z"/>
<g>
	<path class="st1" d="M9,10.2l-7.8,4.4v0.2V15l6.4,3.6c0.2,0.1,0.3,0.3,0.3,0.4v0c0,0.4-0.4,0.6-0.7,0.4l-5.2-2.9
		c-0.3-0.2-0.7,0.1-0.7,0.4v0c0,0.2,0.1,0.4,0.3,0.4L9,21.7l0,0v0v-1.2v-1.2v-1.2v0l-5.3-3c-0.3-0.2-0.3-0.7,0-0.9l3.4-1.9
		c0.3-0.2,0.7,0.1,0.7,0.4v0c0,0.2-0.1,0.4-0.3,0.4l-1.9,1.1c-0.3,0.2-0.3,0.7,0,0.9l0,0c0.2,0.1,0.3,0.1,0.5,0L9,13.7v0v-1.2v-1.2
		L9,10.2L9,10.2L9,10.2z"/>
	<path class="st1" d="M24.8,12.4l5.2,2.9c0.3,0.2,0.7-0.1,0.7-0.4v0c0-0.2-0.1-0.4-0.3-0.4l-7.6-4.2l0,0v0v1.2v1.2v1.2v0l5.3,3
		c0.3,0.2,0.3,0.7,0,0.9l-3.4,1.9C24.4,19.6,24,19.4,24,19v0c0-0.2,0.1-0.4,0.3-0.4l1.9-1.1c0.3-0.2,0.3-0.7,0-0.9l0,0
		c-0.2-0.1-0.3-0.1-0.5,0l-2.8,1.6v0v1.2v1.2v1.2v0l0,0l7.1-4l0,0l0,0l0.7-0.4v-0.2v-0.1L30,16.5l0,0l0,0l-5.7-3.2
		c-0.2-0.1-0.3-0.3-0.3-0.4v0C24,12.5,24.4,12.3,24.8,12.4z"/>
	<path class="st1" d="M22.2,8.2h-3.5v0l-8.6,14.9c-0.2,0.3,0,0.7,0.4,0.7h0c0.2,0,0.3-0.1,0.4-0.3l8.1-14c0.1-0.2,0.3-0.3,0.4-0.3h0
		c0.4,0,0.6,0.4,0.4,0.7l-7.5,13c-0.2,0.3,0,0.7,0.4,0.7h0c0.2,0,0.3-0.1,0.4-0.3L22.2,8.2L22.2,8.2L22.2,8.2z"/>
</g>
</svg>
